<svg id="visual" viewBox="0 0 960 540" width="960" height="540" xmlns="http://www.w3.org/2000/svg" xmlns:xlink="http://www.w3.org/1999/xlink" version="1.1"><path d="M0 128L26.7 125.3C53.3 122.7 106.7 117.3 160 130.3C213.3 143.3 266.7 174.7 320 189C373.3 203.3 426.7 200.7 480 191.7C533.3 182.7 586.7 167.3 640 158C693.3 148.7 746.7 145.3 800 150C853.3 154.7 906.7 167.3 933.3 173.7L960 180L960 541L933.3 541C906.7 541 853.3 541 800 541C746.7 541 693.3 541 640 541C586.7 541 533.3 541 480 541C426.7 541 373.3 541 320 541C266.7 541 213.3 541 160 541C106.7 541 53.3 541 26.7 541L0 541Z" fill="#ea567a"></path><path d="M0 341L26.7 340.2C53.3 339.3 106.7 337.7 160 322.7C213.3 307.7 266.7 279.3 320 278.8C373.3 278.3 426.7 305.7 480 304.7C533.3 303.7 586.7 274.3 640 275.7C693.3 277 746.7 309 800 324.5C853.3 340 906.7 339 933.3 338.5L960 338L960 541L933.3 541C906.7 541 853.3 541 800 541C746.7 541 693.3 541 640 541C586.7 541 533.3 541 480 541C426.7 541 373.3 541 320 541C266.7 541 213.3 541 160 541C106.7 541 53.3 541 26.7 541L0 541Z" fill="#bb375b"></path><path d="M0 366L26.7 374.3C53.3 382.7 106.7 399.3 160 413.2C213.3 427 266.7 438 320 427C373.3 416 426.7 383 480 384.3C533.3 385.7 586.7 421.3 640 424.5C693.3 427.7 746.7 398.3 800 398C853.3 397.7 906.7 426.3 933.3 440.7L960 455L960 541L933.3 541C906.7 541 853.3 541 800 541C746.7 541 693.3 541 640 541C586.7 541 533.3 541 480 541C426.7 541 373.3 541 320 541C266.7 541 213.3 541 160 541C106.7 541 53.3 541 26.7 541L0 541Z" fill="#8e173d"></path></svg>