<svg id="visual" viewBox="0 0 960 540" xmlns="http://www.w3.org/2000/svg" xmlns:xlink="http://www.w3.org/1999/xlink" version="1.1"><path d="M0 331L32 323.3C64 315.7 128 300.3 192 293.2C256 286 320 287 384 294.8C448 302.7 512 317.3 576 311.7C640 306 704 280 768 270C832 260 896 266 928 269L960 272L960 541L928 541C896 541 832 541 768 541C704 541 640 541 576 541C512 541 448 541 384 541C320 541 256 541 192 541C128 541 64 541 32 541L0 541Z" fill="#ea567a"></path><path d="M0 377L32 381.7C64 386.3 128 395.7 192 386.8C256 378 320 351 384 339.3C448 327.7 512 331.3 576 335.3C640 339.3 704 343.7 768 342.8C832 342 896 336 928 333L960 330L960 541L928 541C896 541 832 541 768 541C704 541 640 541 576 541C512 541 448 541 384 541C320 541 256 541 192 541C128 541 64 541 32 541L0 541Z" fill="#bb375b"></path><path d="M0 417L32 419C64 421 128 425 192 431.3C256 437.7 320 446.3 384 443.8C448 441.3 512 427.7 576 427.5C640 427.3 704 440.7 768 449.5C832 458.3 896 462.7 928 464.8L960 467L960 541L928 541C896 541 832 541 768 541C704 541 640 541 576 541C512 541 448 541 384 541C320 541 256 541 192 541C128 541 64 541 32 541L0 541Z" fill="#8e173d"></path></svg>